<svg xmlns="http://www.w3.org/2000/svg" width="860" height="256" viewBox="0 0 860 256">
   <g style="fill:#00dd00" fill="#000000">
      <path d="M56.54 32.53c12.15-1.86 25.08-1.72 36.47 3.37 9.49 3.7 17.31 10.6 23.83 18.28 2.96 3.47 4.82 7.73 7.72 11.25 1.47 1.94 4.24 1.4 6.36 1.39 6.87-.39 12.94-3.94 19.54-5.45 4.18-1.23 7.97 1.55 11.06 4 3.2 2.52 6.16 6.16 5.68 10.49-.49 5.53-3.04 11.27-7.74 14.44-9.62 5.74-19.97 10.15-30.71 13.28-3.3 15.2-12.2 29.28-25.28 37.88-12.45 8.58-28.09 11.93-43.02 9.92-17.79-2.99-34.33-13.77-43.27-29.57-7.68-12.88-9.46-28.61-6.62-43.17 4.68-22.53 23.51-41.33 45.98-46.11M29.09 52.08c-8.65 9.04-15.02 20.83-15.67 33.51 4.47-1.92 6.1-6.46 7.36-10.77 3.2-1.08 6.48-2.01 9.43-3.66 4.6-2.56 8.13-6.72 12.97-8.88 6.71-3.09 14.14-3.67 21.34-4.85 3.89-.43 4.81-5.05 7.75-6.94 4.64-1.1 9 1.41 13.3 2.76 4.69 1.72 9.52-1.85 14.21-.33 3.71 2.3 5 7.04 8.61 9.45 3.28 1.75 7.03 2.3 10.62 3.09-2.16-4.46-4.43-8.99-8.01-12.5-11.24-11.32-26.93-18.63-43.05-18.19-14.5.7-28.74 6.84-38.86 17.31m37.7 9.81c2.81 1.79 5.64 4.22 9.2 3.98 4.83.31 9.27-1.85 13.61-3.65-3.93-3.84-8.47-8.33-14.44-7.94-4.36.07-6.2 4.57-8.37 7.61m76.09 18.06c-4.03.1-7.67-2.02-11.63-2.44-4.77 2.18-7.76 7.27-12.95 8.69-4.27.15-8.12-3.55-12.42-2.13-3.89 1.12-7.68 2.87-11.81 2.95-6.75.16-13.44-1.35-19.85-3.36-6.55-2.08-12.98-5.76-20.06-5.12-7.29.72-14.55 2.05-21.49 4.44 7.01 1.6 13.5-2.16 20.37-2.51 5.32-.04 10.06 2.83 14.94 4.56 7.22 3 14.95 4.42 22.66 5.51.56.81 1.13 1.62 1.69 2.44 1.84-.04 3.68-.08 5.52-.14 3.23-2.76 7.34-5.2 11.74-3.91 3.25.13 4.95 3.03 6.52 5.45.29.16.88.49 1.18.65.94-2.24 1.74-4.54 2.16-6.93 1.03.74 2.06 1.48 3.09 2.21.54-.88 1.09-1.76 1.64-2.65 1.04-.13 2.08-.27 3.12-.41 1.28-2.08 2.57-4.15 3.86-6.23 4.55 1.27 9.41 3.22 14.13 1.56 5.11-1.79 10.14-3.77 15.28-5.46-1.45-.5-2.88-1.07-4.38-1.33-4.64.68-8.62 3.68-13.31 4.16m7.98 1.67-.39 6.33c-.93-1.56-1.84-3.13-2.75-4.69-2.2 2.86-4.64 5.54-6.53 8.63-.14-2.31-.34-4.61-.55-6.91-9.72 3.46-17.96 10.37-28.25 12.35-5.51 1-10.26 4.4-15.85 5.04-3.32.61-6.64-.89-9.96-.17-5.89.8-10.84 4.41-16.48 6.04-6.21 1.76-12.65 3.12-19.13 3-10.29-.45-18.65-7.1-27.04-12.31 2.71 4.5 5.36 9.23 9.54 12.56 3.91 3.18 8.98 4.28 13.79 5.37 5.87 1.36 11.89.09 17.72-.9-8.58 3.38-15.32 9.85-21.77 16.21-1.51 1.66-3.15 3.46-3.56 5.75-.01 1.73 1.93 2.4 3.12 3.24 9.79 4.95 20.88 7.41 31.86 6.62 5.16-14.73 16.19-26.69 28.68-35.68l-1.92-2.52c4.51-.64 8.95-1.83 12.88-4.19 6.2-3.22 13.3-3.77 19.82-6.11 8.03-2.5 15.41-6.57 22.93-10.25 1.28-.7 2.61-1.37 3.65-2.4 1.03-1.87 1.31-4.03 1.82-6.08-3.91-.17-7.8.28-11.63 1.07M110.06 110c-13.17 9.38-26.68 20.42-31.71 36.45 4.99-.54 10.04-1.37 14.58-3.65 15.52-7.31 27.75-21.7 31.75-38.47-5.12 1.13-10.37 2.42-14.62 5.67" style="fill:#fff" transform="translate(-1.393 -41.054)scale(1.84373)"/>
      <path d="M70.2 59.84c3.82-.85 7.77-.88 11.6.01-1.83 1.44-3.42 3.65-5.81 4.12-2.38-.5-3.96-2.68-5.79-4.13m-2.6 55.2c10.94-.49 21.28-5.39 32.33-4.39l-.28 1.56c-7.61 1.39-15.26 2.55-22.91 3.74-3.08.54-6.14-.29-9.14-.91" style="fill:#fff" transform="translate(-1.393 -41.054)scale(1.84373)"/>
   </g>
   <text xml:space="preserve" style="font-style:normal;font-weight:400;font-size:160px;line-height:1.25;font-family:sans-serif;fill:#000;fill-opacity:1;stroke:none" x="329.328" y="126.541">
      <tspan x="329.328" y="126.541" style="font-style:normal;font-variant:normal;font-weight:700;font-stretch:normal;font-size:160px;font-family:'Exo 2', sans-serif;fill:#fff">Yacaré</tspan>
   </text>
   <text xml:space="preserve" style="font-style:normal;font-weight:400;font-size:160px;line-height:1.25;font-family:sans-serif;fill:#000;fill-opacity:1;stroke:none" x="322.362" y="241.505">
      <tspan x="322.362" y="241.505" style="font-style:normal;font-variant:normal;font-weight:700;font-stretch:normal;font-size:160px;font-family:'Exo 2', sans-serif;fill:#fff">Studio</tspan>
   </text>
</svg>